<svg xmlns="http://www.w3.org/2000/svg" viewBox="0 0 400 400"><path fill-rule="evenodd" d="m69.1 18.8-3.5 1.4v83H55.1c-13.9 0-20.7 2-26.3 7.8l-4.6 4.8v205.9l4.6 4.8c7.2 7.4 11.2 7.9 75.4 7.9h59.6l-2.3 9.7-3.9 17.2-1.6 7.5h-11.7c-15.8 0-22.2 4.2-15.9 10.6 2.7 2.7 140.5 2.7 143.2 0 6.3-6.3-.1-10.6-15.8-10.6h-11.5l-3.1-16.8-3-16.8 61.7-.8c65.2-.8 64.7-.8 72-8.6l3.9-4.2V115.8l-4.6-4.8c-5.6-5.8-12.4-7.9-26.3-7.9h-10.5V61.8c0-39.2-.2-41.5-3-43-3.8-2-257.1-2-262.3 0M322 124.3v94.5H78v-189h244zM203.4 53.6c-4.2 5-17.8 49.5-15.9 51.9 4.3 5.1 9 2.8 12.1-5.9 12.9-35.1 15.1-43 13-45.5-2.5-3-7-3.3-9.2-.5M151.1 67a55.5 55.5 0 0 0-10.4 13c0 2.8 21 24.7 23.7 24.7 8.1 0 7.5-8.5-1.5-17.5l-7.3-7.5L163 72c8.6-8.7 9.5-14.7 2.5-15.5-3.2-.4-6.2 1.7-14.5 10.4m79.6-9.7c-2.7 2.7-.4 8 6.4 15l7.3 7.4-7.3 7.5c-9 9-9.6 17.5-1.5 17.5 2.8 0 23.7-21.9 23.7-24.8.2-7-24.6-26.6-28.6-22.6M65.3 171.7c.2 37.7 1 56 2.1 57.5 2.4 2.9 262.2 3 265.1.2 1.4-1.4 1.9-16.4 1.9-57.8v-56h11.3c7.8 0 12.5.8 14.9 2.5l3.5 2.4v153H35.9v-153l3.6-2.5c2.5-1.8 6.4-2.4 14.4-2l11 .4zm31.9-46.4c-1 1-1.9 3-1.9 4.4 0 6.1 1.2 6.2 80 6.2 83.9 0 83 .2 77.8-9.3-2-3.9-152.1-5-156-1.3m.1 31.2a6 6 0 0 0 .2 9c4 3.3 179.2 1.6 181.3-1.8 1.3-2 1.3-3.5 0-5.5-2.2-3.5-178-5.1-181.5-1.7m0 31.3a6 6 0 0 0 .2 8.9c4 3.3 204.2 1.6 206.3-1.8 1.3-2 1.3-3.5 0-5.4-2.2-3.5-203-5.2-206.5-1.7m266.9 113.7c0 22.8 19.8 20.4-164.1 20.4s-164 2.4-164-20.4v-15.6h328zm-108.5-2.2c-6 6-1.2 10.4 10.3 9.8 8.9-.5 12-4.6 7.5-10-2.6-3-14.7-3-17.8.2m34.4 0c-6 6-1.2 10.4 10.3 9.8 8.8-.5 11.9-4.6 7.4-10-2.5-3-14.6-3-17.7.2m34.3 0c-5.9 6-1.2 10.4 10.3 9.8 9-.5 12-4.6 7.5-10-2.5-3-14.6-3-17.8.2m-98.7 37.8c1 3.3 5.6 28.3 5.6 30.3 0 .7-14 1.3-31.3 1.3-29.1 0-31.3-.1-30.6-2.7l2.6-11.3 3.3-14.5 1.5-5.8h24c21.6 0 24.2.3 24.9 2.7"/></svg>
