<?xml version="1.0" encoding="UTF-8" standalone="no"?>
<svg
   viewBox="0 0 160.55782 188.61874"
   version="1.1"
   id="svg1"
   sodipodi:docname="it.svg"
   width="160.55782"
   height="188.61874"
   inkscape:version="1.4.3 (0d15f75042, 2025-12-25)"
   xmlns:inkscape="http://www.inkscape.org/namespaces/inkscape"
   xmlns:sodipodi="http://sodipodi.sourceforge.net/DTD/sodipodi-0.dtd"
   xmlns="http://www.w3.org/2000/svg"
   xmlns:svg="http://www.w3.org/2000/svg">
  <defs
     id="defs1" />
  <sodipodi:namedview
     id="namedview1"
     pagecolor="#ffffff"
     bordercolor="#000000"
     borderopacity="0.25"
     inkscape:showpageshadow="2"
     inkscape:pageopacity="0.0"
     inkscape:pagecheckerboard="0"
     inkscape:deskcolor="#d1d1d1"
     inkscape:zoom="2.935"
     inkscape:cx="80.408859"
     inkscape:cy="94.378194"
     inkscape:window-width="2560"
     inkscape:window-height="1376"
     inkscape:window-x="0"
     inkscape:window-y="0"
     inkscape:window-maximized="1"
     inkscape:current-layer="svg1" />
  <path
     fill-rule="evenodd"
     d="m 92.905808,1.51875 c -7,2 -10.4,4 -16.4,10.2 -2.3,2.4 -3.8,3.4 -4.8,3 l -5,-1.7 c -18.5,-7 -41.2,6.7 -45,26.8 -0.7,3.9 -1.2,4.8 -2.7,5.2 -11.7000002,2.9 -21.1000002,19.4 -18.60000017,32.6 1.59999997,8.5 -0.1,7.8 19.80000017,7.8 h 17.5 l 0.5,2.7 c 0.6,3 1.6,3.7 6,3.7 2.7,0 3.1,0.3 4.4,3.2 l 1.4,3.3 -2,2.7 c -5.9,7.6 8,20.4 14,13 1.5,-1.9 1.8,-2 3.8,-1 1.1,0.7 2.7,1.2 3.4,1.2 0.9,0 1.2,1 1.4,3.8 0.2,4 2,6.6 5,6.6 1.4,0 1.5,0.5 1.3,5.8 l -0.2,5.8 -28.8,0.2 c -15.8,0.1 -29,0.5 -29.5,1 -0.5,0.5 -0.6,5.5 -0.5,11.4 0.1,12.7 -0.1,13.4 -3.6,13.4 -6.0000002,0 -6.6000002,2.3 -6.0000002,22.9 0,1.8 4.3000002,2.7 13.0000002,2.7 12.6,0 12.2,0.4 12.2,-12.7 0,-11.8 -0.5,-12.8 -6.2,-12.9 h -3 v -19.2 l 26.2,0.2 26.2,0.2 v 19.2 l -3.9,0.5 c -5.5,0.8 -6,1.9 -6,12.4 -0.1,12.5 0.5,13.1 13.6,13.1 12.4,0 12.8,-0.4 12.6,-12.8 -0.1,-11 -1,-12.8 -6.5,-12.8 h -3 v -20 h 52.000002 v 19.2 h -3 c -5.6,0 -6.2,1.2 -6.5,12.2 -0.3,13.3 -0.7,13 12.3,13.3 13.6,0.3 13.8,0.2 14,-11.5 0.1,-11.5 -1.2,-14 -7.6,-14 h -2.8 l -0.2,-12.6 -0.2,-12.6 -29,-0.2 -29.000002,-0.2 v -6 c 0,-5.8 0,-5.9 2.3,-6.4 2.5,-0.5 4.1,-3.4 4.1,-7.3 0,-1.4 0.8,-2.3 3.1,-3.4 l 3.2,-1.5 2.2,2.3 c 3.400002,3.6 5.800002,3.1 11.000002,-2 5.3,-5.2 5.9,-8 2.4,-11.3 -3.4,-3.2 -1,-8.7 4,-9 4.3,-0.3 5.6,-1.6 6,-6 0,-0.3 6.7,-0.6 14.8,-0.6 16.3,0 15.7,0.2 19.4,-6.4 a 35.8,35.8 0 0 0 -16.3,-50 c -1.4,-0.6 -2.6,-1.4 -2.7,-1.8 -0.6,-6.5 -10.5,-21.4 -13.6,-20.4 -0.4,0.1 -0.7,-0.2 -0.7,-0.6 0,-1 -6.7,-4 -12,-5.3 -6,-1.4 -11.300002,-1.2 -17.800002,0.6 m 15.000002,5.5 c 7.8,1.6 17.7,8.5 19.2,13.4 0.3,1 0.8,1.8 1.3,1.8 0.5,0 0.7,0.9 0.7,2 0,1.1 0.4,2.1 0.8,2.4 0.4,0.3 0.8,1.7 0.8,3 0,2.5 0.4,2.9 7,6.2 14.8,7.6 20.3,23 13.4,37.4 l -2.7,5.8 h -27.3 v -2 c 0,-2.3 -2,-3.6 -5.9,-3.6 -5,0 -6.5,-6.8 -2.2,-10.7 2.3,-2.1 1,-5.7 -4,-10.3 -4.8,-4.5 -8,-5 -10.800002,-1.8 -2.3,2.7 -9.7,0.6 -8.6,-2.4 0.8,-2 -1.3,-6.6 -3.1,-7.1 -7.8,-2 -15.8,0 -15.8,4.2 0,6.3 -5.5,9.2 -9.7,5 -2.8,-2.7 -6.3,-2.6 -8.6,0.4 -0.9,1 -2,1.9 -2.4,1.9 -0.4,0 -0.8,0.3 -0.7,0.6 0.1,0.3 -0.6,1.4 -1.6,2.4 -2.4,2.4 -2.3,5.8 0.2,8.2 3.2,3 0.7,9.8 -3.4,9.5 -3.7,-0.3 -5.6,0.8 -6.2,3.4 l -0.5,2.3 -15.4,-0.2 -15.3000002,-0.2 -0.4,-2.9 c -1.7,-10.2 6.2000002,-22 16.7000002,-25.1 l 3.9,-1.2 0.5,-4.7 c 2.1,-20.4 25.7,-34 41.3,-23.7 5.4,3.6 6.5,3.5 9,-0.2 7.3,-11.1 18.3,-16.2 29.900002,-13.8 m -13.000002,7.9 c -4.9,2.3 -6.5,5.7 -3.5,7.3 1.2,0.7 2.3,0.6 4.3,-0.4 3.3,-1.5 11.900002,-2 12.300002,-0.6 0.2,0.6 0.8,1 1.3,1 0.5,0 2.2,1.3 3.6,2.8 3.5,3.9 7.1,3.5 7,-0.8 0,-1.7 -7.5,-9.7 -8.3,-8.9 -0.2,0.3 -1,0 -1.5,-0.4 -2.1,-1.7 -11.600002,-1.7 -15.200002,0 m -12.1,35.8 c 0.2,3.3 4.1,7.7 6,6.8 l 3.2,1.2 c 4.4,2 7.900002,1.4 9.600002,-1.7 0.6,-1 1,-1 2.6,0.8 l 1.9,2 -1.8,1.9 c -2.4,2.5 -2.4,4 0.2,10.5 2.6,6.5 3.7,7.6 7.9,7.6 2.9,0 3,0 3,2.8 0,2.8 -0.1,2.8 -3,2.8 -6.7,0 -12.600002,13.3 -8.2,18 l 1.9,2 -1.9,2 -1.8,1.9 -2,-2.3 c -2.100002,-2.6 -3.800002,-2.6 -9.800002,0 -7.5,3.3 -7.6,3.4 -7.8,7 -0.4,4.9 -5.8,5.4 -5.8,0.6 0,-3 -2.2,-6 -4.4,-6 -0.6,0 -2.5,-0.7 -4.1,-1.7 -4.1,-2.3 -7.1,-2.2 -9.7,0.3 l -2.2,2.1 -1.4,-1.7 c -1.8,-2.2 -1.8,-2.5 0.5,-5 2.2,-2.3 2.1,-2.6 -1,-11 -2,-5.2 -2.5,-5.6 -6.9,-6.2 -3.2,-0.4 -3.3,-0.7 -2.9,-4.8 0,-0.4 1.3,-0.8 2.7,-0.8 6.2,0 12,-13.6 7.7,-18.1 -1.7,-1.8 -1.7,-1.8 -0.2,-3.8 l 1.6,-1.9 2.2,1.9 c 2.8,2.4 4.9,2.4 10.2,0 2.4,-1.2 4.9,-2 5.6,-2 1.6,-0.1 2.3,-1.7 2.3,-5.8 0,-5.3 5.4,-4.8 5.8,0.6 m 55.600002,-2.4 c -2.3,0.7 -2.4,3.2 -0.2,7 2.8,4.7 2.3,9.3 -1.3,11.9 -4.1,3 -3.7,7 0.8,7 6.2,0 10.7,-11 8,-19.3 -0.7,-2.1 -5,-7.4 -5.7,-7 z m -66.200002,18.7 c -12.4,6.5 -12.5,24.7 -0.3,30.8 3.7,1.8 14.9,2.2 15.4,0.5 0.2,-0.5 0.8,-0.9 1.4,-0.9 1.8,0 6.3,-6 7.5,-10 4.200002,-14.3 -11,-27.3 -24,-20.4 m 13,6.3 c 2.5,1.3 5.5,6.6 5.4,9.6 -0.2,7.5 -9.9,12.6 -16.1,8.5 -11.5,-7.5 -1.7,-24.1 10.7,-18 m -57.7,101.6 v 6.4 h -12.8 v -12.8 h 12.8 z m 118.000002,0 v 6 l -6.6,0.2 -6.6,0.3 v -13 l 6.6,0.3 6.6,0.2 z m -59.600002,0.8 v 6.4 h -12.8 v -12.8 h 12.8 z"
     id="path1" />
</svg>
