<svg xmlns="http://www.w3.org/2000/svg" viewBox="0 0 400 400"><path fill-rule="evenodd" d="M263.2 34c-5.3 1.3-9 5.5-10.3 11.8 0 .6-.4 1-.8 1-2 0-13.5 4.4-19.3 7.4-5.6 2.8-6.5 3.1-7 2.7-3.1-2.9-9.6-3.6-14-1.7a73.6 73.6 0 0 0-17.6 18c-1.4 3.7-1.2 7.6.5 11l1.4 2.8-2.3 5a174 174 0 0 0-7 18.6l-1 3-1.6.3c-8.6 1.3-11.5 6.7-11.5 20.8 0 14.3 2.5 19 11 21l2 .4 1.8 5.5c2.1 6.2 4.2 11.5 6.8 17l1.8 4-1.3 2.3a15.8 15.8 0 0 0-.1 12.8 81.3 81.3 0 0 0 16.8 16.6 14 14 0 0 0 13.5-1l1.7-1.1 1.4.9a104 104 0 0 0 20.7 8.8c3.9 1 4.3 1.3 4.3 2.5 0 3.4 3.5 8.3 7.3 10.2l2.3 1.1H274c11.3 0 11.4 0 13.3-1 4-1.9 7.6-6.8 7.6-10.3 0-1.2 0-1.2 6.5-3.3 5.6-1.9 11.5-4.2 17.4-7l3.3-1.5 1.3 1c3.5 2.3 9 2.6 13.2.7a81 81 0 0 0 16.8-16.6c1.7-3.4 1.6-9-.2-12.6l-1.3-2.5 2.7-6c2.4-5.3 4.1-9.8 7-18.4l.7-2 2.7-.8c8.5-2.3 10-5.8 10-21.2l-.2-11-1-2c-2-3.7-5.5-6.4-9.3-7.1-2.6-.5-2 .4-4.1-6.2-2-6.3-5-13.4-7.3-18-.9-1.9-1.4-3.2-1.1-3.4 2.3-1.4 3.4-9.1 1.9-13.3a72.8 72.8 0 0 0-17.7-18 13.2 13.2 0 0 0-11.6.3l-2.8 1.4-3.4-1.5a167 167 0 0 0-17.6-7l-5.6-1.8-.5-2.1a13 13 0 0 0-9.7-10.3 122 122 0 0 0-21.8-.2M39.3 73.3a18.9 18.9 0 0 0-13.5 12.6c-1.2 3.9-1.2 195.8 0 199.7a19 19 0 0 0 14.7 12.8c2 .3 42.4.4 152.3.3h149.6l2.3-1a19.4 19.4 0 0 0 12.3-14c.3-1.4.4-15.4.4-37.1v-35l-4.8 4.7c-11 10.7-18.3 13.3-29 10.4l-2.6-.6-3.7 1.7-8 3.5c-4.2 1.6-4.2 1.6-5.5 3.8a28.8 28.8 0 0 1-14.1 11.7c-3.7 1.3-23.4 1.8-28.6.7a27.8 27.8 0 0 1-17-12.6c-1-2-1-2-4.5-3.3a135 135 0 0 1-8.2-3.4l-4.8-2-3.4.8c-10.7 2.6-17.6-.3-30-13-11.4-11.5-14-18.5-11.1-29.3l.8-3-1.3-2.5c-.7-1.3-2.3-4.9-3.5-8-2.2-5.3-2.3-5.4-4-6.4-10.3-5.6-13.4-12.5-13.4-30 0-17 3.1-24 13-29.7 2.2-1.4 2.3-1.5 3.6-4.7.7-1.8 2.2-5.5 3.4-8l2.2-4.8-.6-1.8c-.7-2-1.5-7.5-1.2-8.7l.3-2.6.2-1.8h-70c-59 0-70.4.1-72.3.6m240.2 6.2c38.3 2.3 62 45.3 44.5 80.4a56 56 0 0 1-80.8 21.7c-40.8-27.4-29.7-90.3 17.9-101a63.8 63.8 0 0 1 18.4-1.1M160.7 198.2c1.5.3 23.3 21.9 24.5 24.1 1 1.9 1 3.5 0 5.4-.8 1.5-22.3 23-23.7 23.8-4.5 2.3-10-2.5-8.4-7.2a54 54 0 0 1 9.3-10.4l8.9-9-8.7-8.6c-10.2-10.3-11-11.5-9.1-15 1-2.1 4-3.8 5.7-3.4zm-73.5.3c2.9 1.4 4.2 4.2 3.4 7-.4 1.5-1.8 3-9.3 10.6l-8.8 8.9 8.8 8.9a54 54 0 0 1 9.3 10.4c1.6 4.7-3.9 9.5-8.3 7.2-1.5-.7-23-22.3-23.7-23.8-2-3.8-1.3-4.8 11.6-17.6 12.5-12.5 13.7-13.3 17-11.6m42.5.1a7 7 0 0 1 3.3 4.2c.3 1.6-9.9 43.4-11.1 45.9-2.6 5-10.2 3.8-11.2-1.6-.3-1.6 10-43.7 11.3-46a6 6 0 0 1 7.7-2.5m35.1 115.8a89 89 0 0 1-2 17.8l-8.3.8c-32.2 2.5-60.3 9.1-78 18.2-7 3.6-8.4 5.2-8 9.2.4 5.5 5.4 7.2 11.2 3.9 31.1-18.3 112.8-25.4 173.6-15.3 21 3.6 40.8 9.8 50.2 15.9 5.2 3.3 11.5-.6 10.4-6.5-1.9-9.8-44.7-22.2-88.3-25.6l-6.1-.7c-.7-.6-1.7-8.7-1.8-14.6l-.2-6.6h-52.7z"/></svg>
